{"title":"The.Stick.Up.Kids.2008.DvdRip.x264.LKRG","uid":5908634,"size":727685898,"categoryP":"video","categoryS":"movies","magnet":"?xt=urn:btih:211b4a734c32c9656c2fcc6d8955e79568d95782&amp;dn=The.Stick.Up.Kids.2008.DvdRip.x264.LKRG&amp;tr=udp%3A%2F%2Ftracker.openbittorrent.com%3A80&amp;tr=udp%3A%2F%2Fopen.demonii.com%3A1337&amp;tr=udp%3A%2F%2Ftracker.coppersurfer.tk%3A6969&amp;tr=udp%3A%2F%2Fexodus.desync.com%3A6969","seeders":1,"leechers":0,"uploader":".BONE.","files":51,"time":1287979991,"description":"Smooth-talking, ambitious Santos (Tariq Alexander) heads a small but tight crew, consisting of his three childhood friends, in his Harlem neighborhood. The four friends, known as &quot;The Stick Up Kids,&quot; mistakenly believe they can outrun any and all trouble. Although they are skilled at petty crime, the friends must pull off a complex con after an unforeseen death tests their relationships with one another and their community, which is in danger.\n\nM8xQHet8.png\nVideo\nID : 1\nFormat : AVC\nFormat/Info : Advanced Video Codec\nFormat profile : &lt;a class=&quot;__cf_email__&quot; href=&quot;/cdn-cgi/l/email-protection&quot; data-cfemail=&quot;470a262e29070b746977&quot;&gt;[email&amp;#160;protected]&lt;/a&gt;&lt;script cf-hash='f9e31' type=&quot;text/javascript&quot;&gt;\n/* &lt;![CDATA[ */!function(){try{var t=&quot;currentScript&quot;in document?document.currentScript:function(){for(var t=document.getElementsByTagName(&quot;script&quot;),e=t.length;e--;)if(t[e].getAttribute(&quot;cf-hash&quot;))return t[e]}();if(t&amp;&amp;t.previousSibling){var e,r,n,i,c=t.previousSibling,a=c.getAttribute(&quot;data-cfemail&quot;);if(a){for(e=&quot;&quot;,r=parseInt(a.substr(0,2),16),n=2;a.length-n;n+=2)i=parseInt(a.substr(n,2),16)^r,e+=String.fromCharCode(i);e=document.createTextNode(e),c.parentNode.replaceChild(e,c)}}}catch(u){}}();/* ]]&gt; */&lt;/script&gt;\nFormat settings, CABAC : Yes\nFormat settings, ReFrames : 2 frames\nCodec ID : avc1\nCodec ID/Info : Advanced Video Coding\nDuration : 1h 59mn\nBit rate mode : Variable\nBit rate : 658 Kbps\nWidth : 718 pixels\nHeight : 480 pixels\nDisplay aspect ratio : 16:9\nFrame rate mode : Variable\nFrame rate : 23.976 fps\nMinimum frame rate : 11.989 fps\nMaximum frame rate : 29.970 fps\nColor space : YUV\nChroma subsampling : 4:2:0\nBit depth : 8 bits\nScan type : Progressive\nBits/(Pixel*Frame) : 0.080\nStream size : 557 MiB (80%)\nWriting library : x264 core 79\n\nAudio\nID : 2\nFormat : AAC\nFormat/Info : Advanced Audio Codec\nFormat version : Version 4\nFormat profile : LC\nFormat settings, SBR : No\nCodec ID : 40\nDuration : 1h 59mn\nBit rate mode : Variable\nBit rate : 160 Kbps\nMaximum bit rate : 232 Kbps\nChannel(s) : 2 channels\nChannel positions : Front: L R\nSampling rate : 48.0 KHz\nStream size : 136 MiB (20%)\nLanguage : English","torrent":{"xt":"urn:btih:211b4a734c32c9656c2fcc6d8955e79568d95782","amp;dn":"The.Stick.Up.Kids.2008.DvdRip.x264.LKRG","amp;tr":["udp%3A%2F%2Ftracker.openbittorrent.com%3A80","udp%3A%2F%2Fopen.demonii.com%3A1337","udp%3A%2F%2Ftracker.coppersurfer.tk%3A6969","udp%3A%2F%2Fexodus.desync.com%3A6969"],"infoHash":"211b4a734c32c9656c2fcc6d8955e79568d95782","infoHashBuffer":{"type":"Buffer","data":[33,27,74,115,76,50,201,101,108,47,204,109,137,85,231,149,104,217,87,130]},"announce":[],"urlList":[]}}